<?xml version="1.0" encoding="utf-8"?>
<!-- Generator: Adobe Illustrator 25.2.3, SVG Export Plug-In . SVG Version: 6.00 Build 0)  -->
<svg version="1.1" id="레이어_1" xmlns="http://www.w3.org/2000/svg" xmlns:xlink="http://www.w3.org/1999/xlink" x="0px"
	 y="0px" viewBox="0 0 45.35 45.35" style="enable-background:new 0 0 45.35 45.35;" xml:space="preserve">
<style type="text/css">
	.st0{fill:#323333;}
</style>
<path class="st0" d="M42.6,17.8C40.49,15.76,26.39,2.04,26.33,1.99c-0.3-0.26-1.8-1.46-3.1-1.7c-0.08-0.02-0.16-0.05-0.26-0.05
	c-2.29,0-3.77,1.52-4.04,1.82C18.24,2.74,4.81,15.81,2.75,17.8c-2.51,2.44-1.99,4.29-1.73,5.2c0.29,1.03,1.15,1.83,2.49,2.33
	c0.44,0.17,0.93,0.25,1.44,0.25h8.42l0,13.5c0,0.11-0.11,2.59,1.56,4.36c1.06,1.11,2.54,1.67,4.41,1.67h2.52h1.62h2.52
	c1.87,0,3.36-0.56,4.41-1.67c1.68-1.77,1.57-4.25,1.57-4.3V25.58h8.42c0.51,0,0.99-0.08,1.44-0.25c1.34-0.5,2.2-1.31,2.5-2.36
	C44.59,22.09,45.11,20.24,42.6,17.8z M42.41,22.46c-0.15,0.53-0.93,0.88-1.26,1c-0.22,0.08-0.47,0.12-0.74,0.12h-9.42
	c-0.55,0-1,0.45-1,1l0,14.6c0,0.02,0.06,1.76-1.03,2.89c-0.66,0.69-1.66,1.04-2.95,1.04h-2.52h-1.62h-2.52
	c-1.3,0-2.29-0.35-2.95-1.04c-1.09-1.13-1.03-2.87-1.03-2.94V24.58c0-0.55-0.45-1-1-1H4.95c-0.27,0-0.52-0.04-0.74-0.12
	c-0.33-0.12-1.11-0.47-1.27-1.02c-0.19-0.67-0.45-1.59,1.21-3.2C6.25,17.19,20.36,3.47,20.43,3.4c0.01-0.01,0.97-1.1,2.44-1.15
	c0.55,0.08,1.61,0.79,2.12,1.22c0,0,14.11,13.72,16.21,15.77C42.86,20.84,42.6,21.76,42.41,22.46z"/>
</svg>
